Normalized EMG Linear Envelopes
nRows=234
nColumns=4

endheader
time	 med_gas_r	  soleus_r	 tib_ant_r	
3.42641	  0.007351	  0.025678	  0.001597	
3.45968	  0.007522	  0.025445	  0.001571	
3.49294	  0.007586	  0.025540	  0.001549	
3.52621	  0.007529	  0.025871	  0.001531	
3.55948	  0.007415	  0.026315	  0.001521	
3.59274	  0.007327	  0.026779	  0.001520	
3.62601	  0.007301	  0.027217	  0.001531	
3.65927	  0.007323	  0.027595	  0.001556	
3.69254	  0.007362	  0.027742	  0.001598	
3.72581	  0.007397	  0.027480	  0.001648	
3.75907	  0.007410	  0.026832	  0.001698	
3.79234	  0.007405	  0.025928	  0.001743	
3.8256	  0.007368	  0.024870	  0.001782	
3.85887	  0.007299	  0.023740	  0.001808	
3.89214	  0.007213	  0.022640	  0.001818	
3.9254	  0.007124	  0.021675	  0.001816	
3.95867	  0.007066	  0.020886	  0.001803	
3.99194	  0.007071	  0.020317	  0.001784	
4.0252	  0.007147	  0.019923	  0.001759	
4.05847	  0.007303	  0.019642	  0.001728	
4.09173	  0.007558	  0.019465	  0.001697	
4.125	  0.007912	  0.019417	  0.001669	
4.15827	  0.008314	  0.019556	  0.001642	
4.19153	  0.008691	  0.019887	  0.001618	
4.2248	  0.008936	  0.020262	  0.001596	
4.25806	  0.009025	  0.020562	  0.001576	
4.29133	  0.008996	  0.020809	  0.001560	
4.3246	  0.008873	  0.021074	  0.001553	
4.35786	  0.008675	  0.021401	  0.001559	
4.39113	  0.008409	  0.021781	  0.001573	
4.4244	  0.008131	  0.022175	  0.001589	
4.45766	  0.007884	  0.022573	  0.001597	
4.49093	  0.007691	  0.022902	  0.001599	
4.52419	  0.007545	  0.023118	  0.001600	
4.55746	  0.007389	  0.023204	  0.001602	
4.59073	  0.007184	  0.023159	  0.001606	
4.62399	  0.006997	  0.022982	  0.001614	
4.65726	  0.006911	  0.022663	  0.001628	
4.69052	  0.006978	  0.022203	  0.001660	
4.72379	  0.007210	  0.021607	  0.001722	
4.75706	  0.007558	  0.020906	  0.001818	
4.79032	  0.007955	  0.020214	  0.001944	
4.82359	  0.008342	  0.019614	  0.002093	
4.85685	  0.008685	  0.019167	  0.002251	
4.89012	  0.008945	  0.018962	  0.002390	
4.92339	  0.009098	  0.019040	  0.002462	
4.95665	  0.009133	  0.019352	  0.002395	
4.98992	  0.009051	  0.019823	  0.002090	
5.02319	  0.008883	  0.020333	  0.001429	
5.05645	  0.008642	  0.020761	  0.000283	
5.08972	  0.008348	  0.021061	 -0.001456	
5.12298	  0.008015	  0.021268	 -0.003850	
5.15625	  0.007624	  0.021349	 -0.006872	
5.18952	  0.007229	  0.021324	 -0.010325	
5.22278	  0.006922	  0.021241	 -0.013756	
5.25605	  0.006766	  0.021083	 -0.016358	
5.28931	  0.006811	  0.021002	 -0.016878	
5.32258	  0.007112	  0.021310	 -0.013541	
5.35585	  0.007719	  0.022454	 -0.004029	
5.38911	  0.008712	  0.024977	  0.014408	
5.42238	  0.010290	  0.029517	  0.044667	
5.45565	  0.012667	  0.036744	  0.089259	
5.48891	  0.015941	  0.047307	  0.149635	
5.52218	  0.020040	  0.061781	  0.224945	
5.55544	  0.024651	  0.080379	  0.311101	
5.58871	  0.029289	  0.102543	  0.401527	
5.62198	  0.033440	  0.126807	  0.490185	
5.65524	  0.036788	  0.151530	  0.571372	
5.68851	  0.039313	  0.175547	  0.639834	
5.72177	  0.041116	  0.198041	  0.692331	
5.75504	  0.042482	  0.218029	  0.728007	
5.78831	  0.043623	  0.234865	  0.750557	
5.82157	  0.044504	  0.248527	  0.767237	
5.85484	  0.045042	  0.260126	  0.782118	
5.8881	  0.045354	  0.270528	  0.799068	
5.92137	  0.045700	  0.279089	  0.817665	
5.95464	  0.046149	  0.284445	  0.834300	
5.9879	  0.046645	  0.286903	  0.846001	
6.02117	  0.047153	  0.288097	  0.852064	
6.05444	  0.047714	  0.288350	  0.853895	
6.0877	  0.048094	  0.285408	  0.849969	
6.12097	  0.047998	  0.276791	  0.835525	
6.15423	  0.047474	  0.263276	  0.812759	
6.1875	  0.046718	  0.247574	  0.788861	
6.22077	  0.045925	  0.233449	  0.768382	
6.25403	  0.045264	  0.222911	  0.752898	
6.2873	  0.044833	  0.216196	  0.740824	
6.32056	  0.044604	  0.213385	  0.731292	
6.35383	  0.044482	  0.213542	  0.722876	
6.3871	  0.044345	  0.214858	  0.711650	
6.42036	  0.044084	  0.215929	  0.696603	
6.45363	  0.043706	  0.216989	  0.680647	
6.4869	  0.043349	  0.219330	  0.669872	
6.52016	  0.043177	  0.222446	  0.669191	
6.55343	  0.043307	  0.225102	  0.679665	
6.58669	  0.043750	  0.227741	  0.699620	
6.61996	  0.044505	  0.231748	  0.725022	
6.65323	  0.045422	  0.237711	  0.750896	
6.68649	  0.046286	  0.245735	  0.774132	
6.71976	  0.046949	  0.254615	  0.791339	
6.75302	  0.047308	  0.262861	  0.799476	
6.78629	  0.047323	  0.271032	  0.798972	
6.81956	  0.047007	  0.279343	  0.792868	
6.85282	  0.046602	  0.288071	  0.785723	
6.88609	  0.046198	  0.295592	  0.780726	
6.91935	  0.045991	  0.299517	  0.778450	
6.95262	  0.046163	  0.300337	  0.777342	
6.98589	  0.046544	  0.299606	  0.775455	
7.01915	  0.046826	  0.298925	  0.770517	
7.05242	  0.046856	  0.299135	  0.764661	
7.08569	  0.046532	  0.300191	  0.758469	
7.11895	  0.045760	  0.301795	  0.754881	
7.15222	  0.044576	  0.304281	  0.757366	
7.18548	  0.043253	  0.309593	  0.764102	
7.21875	  0.042092	  0.318957	  0.772624	
7.25202	  0.041291	  0.332147	  0.779633	
7.28528	  0.040890	  0.347383	  0.784617	
7.31855	  0.040848	  0.361730	  0.789495	
7.35181	  0.041089	  0.373206	  0.796444	
7.38508	  0.041646	  0.380598	  0.806256	
7.41835	  0.042436	  0.382764	  0.817767	
7.45161	  0.043200	  0.381452	  0.827098	
7.48488	  0.043748	  0.380961	  0.831407	
7.51815	  0.043982	  0.382964	  0.829759	
7.55141	  0.043998	  0.386837	  0.822297	
7.58468	  0.043830	  0.391616	  0.812108	
7.61794	  0.043446	  0.397284	  0.801921	
7.65121	  0.043065	  0.403050	  0.792843	
7.68448	  0.042918	  0.406333	  0.785748	
7.71774	  0.043055	  0.405479	  0.782718	
7.75101	  0.043500	  0.398946	  0.785561	
7.78427	  0.044258	  0.386652	  0.792929	
7.81754	  0.045257	  0.369161	  0.800432	
7.85081	  0.046271	  0.349785	  0.804359	
7.88407	  0.047037	  0.332592	  0.802588	
7.91734	  0.047551	  0.320138	  0.795916	
7.9506	  0.047860	  0.315183	  0.789599	
7.98387	  0.047975	  0.319639	  0.789857	
8.01714	  0.047970	  0.333431	  0.799968	
8.0504	  0.047887	  0.353986	  0.818132	
8.08367	  0.047892	  0.375397	  0.840477	
8.11694	  0.048207	  0.391522	  0.862081	
8.1502	  0.048815	  0.398139	  0.879133	
8.18347	  0.049476	  0.393351	  0.889528	
8.21673	  0.049820	  0.377293	  0.891610	
8.25	  0.049664	  0.353785	  0.885944	
8.28327	  0.049127	  0.330154	  0.875553	
8.31653	  0.048496	  0.312569	  0.864184	
8.3498	  0.047923	  0.302587	  0.852203	
8.38306	  0.047375	  0.298994	  0.841947	
8.41633	  0.046753	  0.298686	  0.835750	
8.4496	  0.046163	  0.298255	  0.833144	
8.48286	  0.045576	  0.297151	  0.830861	
8.51613	  0.044821	  0.296216	  0.828300	
8.5494	  0.043830	  0.295487	  0.825235	
8.58266	  0.042767	  0.293893	  0.821937	
8.61593	  0.041885	  0.290253	  0.820324	
8.64919	  0.041455	  0.285842	  0.822116	
8.68246	  0.041473	  0.281258	  0.823891	
8.71573	  0.041789	  0.274934	  0.822028	
8.74899	  0.042189	  0.266184	  0.815496	
8.78226	  0.042480	  0.258053	  0.805351	
8.81552	  0.042627	  0.253316	  0.790677	
8.84879	  0.042511	  0.252303	  0.772728	
8.88206	  0.042019	  0.253596	  0.754673	
8.91532	  0.041248	  0.255654	  0.739869	
8.94859	  0.040360	  0.258406	  0.729397	
8.98185	  0.039498	  0.262876	  0.720156	
9.01512	  0.038765	  0.270268	  0.707006	
9.04839	  0.038160	  0.279050	  0.687674	
9.08165	  0.037702	  0.286787	  0.665973	
9.11492	  0.037486	  0.290716	  0.647537	
9.14819	  0.037361	  0.288228	  0.636203	
9.18145	  0.037261	  0.278663	  0.632701	
9.21472	  0.037195	  0.264432	  0.636131	
9.24798	  0.037176	  0.250961	  0.644135	
9.28125	  0.037149	  0.242425	  0.654916	
9.31452	  0.037056	  0.240633	  0.668057	
9.34778	  0.036870	  0.245404	  0.683477	
9.38105	  0.036701	  0.255462	  0.700049	
9.41431	  0.036616	  0.269209	  0.714183	
9.44758	  0.036716	  0.283033	  0.721481	
9.48085	  0.037014	  0.291684	  0.715245	
9.51411	  0.037303	  0.290226	  0.691708	
9.54738	  0.037253	  0.277253	  0.655782	
9.58065	  0.036704	  0.255058	  0.614848	
9.61391	  0.035640	  0.228098	  0.574158	
9.64718	  0.034104	  0.199607	  0.534343	
9.68044	  0.032234	  0.171534	  0.494547	
9.71371	  0.030293	  0.145868	  0.456648	
9.74698	  0.028579	  0.124790	  0.421247	
9.78024	  0.027219	  0.109295	  0.386726	
9.81351	  0.026175	  0.098779	  0.350995	
9.84677	  0.025324	  0.091916	  0.313211	
9.88004	  0.024403	  0.086942	  0.273956	
9.91331	  0.023016	  0.082606	  0.234782	
9.94657	  0.020932	  0.078379	  0.196996	
9.97984	  0.018522	  0.074178	  0.162533	
10.0131	  0.016181	  0.069805	  0.131300	
10.0464	  0.014073	  0.064643	  0.101874	
10.0796	  0.012295	  0.058570	  0.074727	
10.1129	  0.010886	  0.051891	  0.051328	
10.1462	  0.009831	  0.045073	  0.032561	
10.1794	  0.009039	  0.038423	  0.018450	
10.2127	  0.008469	  0.032349	  0.008650	
10.246	  0.008100	  0.027359	  0.002489	
10.2792	  0.007877	  0.023619	 -0.000864	
10.3125	  0.007752	  0.021108	 -0.002237	
10.3458	  0.007678	  0.019708	 -0.002348	
10.379	  0.007600	  0.019204	 -0.001773	
10.4123	  0.007493	  0.019379	 -0.000908	
10.4456	  0.007384	  0.020114	  0.000026	
10.4788	  0.007327	  0.021403	  0.000908	
10.5121	  0.007341	  0.023303	  0.001681	
10.5454	  0.007430	  0.025889	  0.002332	
10.5786	  0.007589	  0.029260	  0.002861	
10.6119	  0.007786	  0.033459	  0.003264	
10.6452	  0.008005	  0.038327	  0.003513	
10.6784	  0.008236	  0.043352	  0.003598	
10.7117	  0.008454	  0.047629	  0.003557	
10.745	  0.008637	  0.049854	  0.003423	
10.7782	  0.008772	  0.049827	  0.003231	
10.8115	  0.008865	  0.048561	  0.003024	
10.8448	  0.008858	  0.046849	  0.002822	
10.878	  0.008708	  0.044816	  0.002612	
10.9113	  0.008427	  0.041996	  0.002401	
10.9446	  0.008070	  0.038004	  0.002206	
10.9778	  0.007718	  0.033442	  0.002045	
11.0111	  0.007433	  0.029056	  0.001929	
11.0444	  0.007236	  0.025251	  0.001853	
11.0776	  0.007113	  0.022184	  0.001803	
11.1109	  0.007026	  0.019908	  0.001765	
11.1442	  0.006936	  0.018375	  0.001735	
11.1774	  0.006839	  0.017488	  0.001720	
